<svg width="284" height="137" viewBox="0 0 284 137" fill="none" xmlns="http://www.w3.org/2000/svg">
<g clip-path="url(#clip0_44_361)">
<path fill-rule="evenodd" clip-rule="evenodd" d="M273.869 37.8389L280.426 40.7336L280.429 41.1787C280.429 45.8145 280.376 46.473 279.586 49.9235C279.139 51.978 278.744 53.9798 278.691 54.4011C278.665 54.849 279.692 57.5883 281.218 61.1968C282.639 64.5153 283.877 67.4127 283.93 67.5707C284.035 67.8345 283.166 67.9136 280.166 67.9136H276.244L273.901 81.2937C272.611 88.6426 271.479 94.7267 271.4 94.8325C271.295 94.9376 266.109 95.2537 259.846 95.5436C253.554 95.8067 248.396 96.0967 248.369 96.1496C248.316 96.1757 244.579 103.525 240.052 112.427C229.365 133.472 227.575 136.87 227.496 136.396C227.443 136.185 230.313 125.808 233.813 113.349L240.236 90.697L244.289 90.4861C246.527 90.3809 251.949 90.1439 256.371 89.9597L264.399 89.6437L266.926 76.6051L269.426 63.5673L273.453 63.4883C276.323 63.4356 277.481 63.3303 277.586 63.0932C277.639 62.9088 276.454 60.0642 274.928 56.7718C273.401 53.4793 272.164 50.6873 272.164 50.5293C272.164 50.3976 272.453 49.265 272.822 48.0007C273.78 44.6977 274.114 41.263 273.869 37.8389Z" fill="#1F1F1F"/>
<path fill-rule="evenodd" clip-rule="evenodd" d="M273.869 37.8801C273.281 29.5331 269.267 21.2414 262.477 15.0253C256.686 9.73108 248.447 5.49042 240.314 3.59398C235.208 2.43504 228.022 1.88191 223.337 2.32968C221.757 2.48772 220.415 2.56674 220.363 2.5404C220.099 2.277 227.285 0.643955 230.154 0.301539C236.366 -0.435968 243.42 0.196181 249.737 2.01361C262.924 5.83284 274.058 16.1053 278.427 28.4849C279.985 32.9072 280.428 35.5439 280.425 40.7511L278.864 40.0584L273.869 37.8801Z" fill="#1F1F1F"/>
<path d="M140.74 96.7547C140.346 97.1497 140.293 98.2298 140.293 108.054C140.293 117.168 140.346 118.986 140.662 119.249C140.951 119.486 142.82 119.539 147.584 119.486C153.69 119.407 154.191 119.381 155.165 118.828C157.507 117.563 158.823 115.324 158.823 112.559C158.823 110.53 158.429 109.529 157.191 108.318L156.455 107.58L157.297 106.448C158.666 104.683 158.797 102.26 157.665 100.047C157.007 98.7829 155.928 97.8086 154.375 97.0975C153.165 96.5705 152.612 96.4915 147.111 96.4125C141.82 96.3073 141.135 96.3596 140.74 96.7547ZM152.48 101.153C153.901 101.891 154.191 103.735 153.033 104.815C152.401 105.421 152.164 105.447 148.69 105.526L145.031 105.632V100.837H148.479C150.585 100.837 152.138 100.943 152.48 101.153ZM152.796 110.346C154.454 111.136 154.639 113.507 153.112 114.639C152.454 115.113 151.927 115.192 148.69 115.271L145.031 115.377V109.714L148.532 109.845C150.796 109.925 152.269 110.083 152.796 110.346Z" fill="#1F1F1F"/>
<path d="M110.84 96.8076C110.05 97.4926 101.995 118.459 102.311 119.012C102.522 119.302 103.048 119.407 104.496 119.407H106.444L108.234 115.219C109.208 112.901 110.023 110.926 110.023 110.82C110.023 110.715 110.787 108.713 111.682 106.343L113.366 102.075L115.13 106.659C116.104 109.187 117.657 113.086 118.552 115.324L120.21 119.407H122.289C124.21 119.407 124.368 119.354 124.447 118.854C124.553 118.117 116.42 97.1237 115.893 96.6757C115.182 96.1494 111.524 96.2545 110.84 96.8076Z" fill="#1F1F1F"/>
<path d="M72.2788 96.7818C71.9101 97.124 71.8579 98.5201 71.8579 108.055C71.8579 116.958 71.9369 119.012 72.226 119.249C72.4628 119.46 74.8316 119.539 80.3066 119.486C80.3066 119.486 85.8369 119.43 87.5473 119.412C87.823 119.41 88.0453 119.185 88.0453 118.909V115.924C88.0453 115.664 87.8371 115.453 87.5785 115.449C86.2146 115.431 82.3334 115.377 82.3334 115.377L76.5955 115.325V106.106C76.5955 95.5966 76.7795 96.3599 74.121 96.3599C73.1735 96.3599 72.5418 96.4918 72.2788 96.7818Z" fill="#1F1F1F"/>
<path d="M183.855 26.139C183.434 26.5604 183.197 27.1319 183.197 27.7299C183.197 32.0364 183.197 49.8182 183.197 49.8182C183.197 49.8182 183.197 67.6842 183.197 71.9382C183.197 72.5219 183.392 73.089 183.75 73.5503C184.098 73.9983 184.634 74.2589 185.203 74.2551C187.932 74.2366 195.937 74.1824 195.937 74.1824C206.807 74.0767 207.676 74.0505 209.545 73.5236C214.73 72.0752 218.441 69.1517 220.679 64.7524C222.574 61.0915 223.206 57.3513 223.206 49.8709C223.206 39.8091 221.81 35.1471 217.573 30.8801C215.441 28.7466 212.624 27.1925 209.124 26.2443C207.149 25.7175 206.308 25.6648 195.779 25.5595C195.779 25.5595 188.232 25.4884 185.508 25.462C184.887 25.4568 184.292 25.7017 183.855 26.139ZM204.728 34.7256C208.045 35.2788 210.834 37.1489 212.151 39.7038C213.309 41.9953 213.546 43.7338 213.546 49.7392C213.572 55.9816 213.335 57.6674 212.151 60.0115C211.387 61.5129 209.624 63.3567 208.308 64.0413C206.255 65.0691 204.702 65.2794 198.753 65.2794H192.936V34.4623H198.016C200.78 34.4623 203.807 34.5939 204.728 34.7256Z" fill="#1F1F1F"/>
<path d="M134.948 25.7152C134.624 25.8126 134.33 25.9917 134.094 26.2367C133.917 26.4 133.761 26.5949 133.66 26.7713C132.923 28.0093 116.078 71.8385 116.078 72.4706C116.078 72.8128 116.341 73.3398 116.683 73.6558C117.235 74.1828 117.578 74.235 120.631 74.235C122.447 74.235 124.237 74.1038 124.579 73.9457C125.422 73.5768 125.658 73.1288 127.159 69.1514C127.895 67.255 128.712 65.2797 128.949 64.7795C129.212 64.2525 130.107 61.9873 130.923 59.7485C133.002 54.1118 139.266 37.5706 139.477 37.1491C139.582 36.9384 141.214 40.8103 143.294 46.2362C149.979 63.594 153.822 73.0498 154.428 73.6297C154.981 74.2089 155.217 74.235 158.534 74.235C161.877 74.235 162.088 74.2089 162.614 73.6297C162.929 73.2869 163.193 72.7338 163.193 72.3648C163.193 71.762 146.784 29.026 145.755 26.9294C145.539 26.5106 145.215 26.1577 144.813 25.91C144.75 25.8811 144.692 25.8495 144.636 25.8231C143.863 25.4597 136.734 25.4307 134.948 25.7152Z" fill="#1F1F1F"/>
<path d="M64.8825 26.1653C64.4623 26.5683 64.2241 27.1267 64.2241 27.7115C64.2241 31.9838 64.2241 49.8182 64.2241 49.8182C64.2241 72.7074 64.2241 72.8387 64.7768 73.5504L65.3034 74.2348H81.3329C96.7052 74.2348 97.363 74.2087 97.9418 73.7346C98.5474 73.2605 98.5735 73.0757 98.5735 69.9152C98.5735 66.8336 98.5474 66.5704 97.9685 66.0167C97.5801 65.6299 97.0554 65.4088 96.5072 65.4056C93.8111 65.3878 85.6763 65.3324 85.6763 65.3324L73.9629 65.2533V54.2169H84.2022C90.6508 54.2169 94.7045 54.1115 95.2043 53.9535C96.3365 53.5321 96.5995 52.7155 96.5995 49.4495C96.5995 46.7365 96.5734 46.5258 95.9417 45.92C95.538 45.4985 94.9808 45.2615 94.3975 45.2615C91.8122 45.2615 84.6231 45.2615 84.6231 45.2615H73.9629V34.4623H85.3605C97.626 34.4359 97.363 34.4623 97.9157 33.0399C98.2576 32.1181 98.2576 27.8511 97.9157 26.9292C97.363 25.4805 97.9418 25.5332 81.1228 25.5068C81.1228 25.5068 69.7647 25.5068 66.4261 25.5068C65.8434 25.5068 65.2856 25.7439 64.8825 26.1653Z" fill="#1F1F1F"/>
<path d="M0.658033 26.1653C0.658033 26.1653 0.567759 26.2522 0.453787 26.3602C0.163988 26.6394 0 27.024 0 27.427C0 31.1198 0 49.8182 0 49.8182C0 72.7073 0 72.8393 0.55275 73.5504C1.07918 74.2347 1.13182 74.2615 4.63257 74.2615C6.60669 74.2615 7.49263 74.2488 8.48994 74.2347C9.50279 74.2207 9.66784 72.7475 9.73891 71.1927V54.2169H30.2696V63.5411C30.2696 75.2358 29.6261 74.2615 34.8377 74.2615C38.1542 74.2615 38.7451 74.1825 39.2189 73.7084C39.7454 73.1814 39.7454 72.8392 39.7454 49.8972C39.7454 49.8972 39.7454 31.6676 39.7454 27.4507C39.7454 26.9054 39.4924 26.3919 39.061 26.0599C38.4293 25.5595 38.0081 25.5068 34.9549 25.5068C31.691 25.5068 31.533 25.5332 30.9277 26.1653C30.5073 26.5683 30.2696 27.1267 30.2696 27.7115C30.2696 30.0425 30.2696 36.0426 30.2696 36.0426V45.2615H20.0043H9.76527L9.68631 36.0163C9.68631 36.0163 9.63282 29.7738 9.61391 27.5481C9.60971 27.0556 9.3925 26.5867 9.01796 26.2654C8.93135 26.1916 8.87035 26.1389 8.87035 26.1389C8.15965 25.5332 7.94907 25.5068 4.71153 25.5068C1.42136 25.5068 1.26343 25.5332 0.658033 26.1653Z" fill="#1F1F1F"/>
</g>
<defs>
<clipPath id="clip0_44_361">
<rect width="284" height="137" fill="white"/>
</clipPath>
</defs>
</svg>
