<svg width="48" height="48" viewBox="0 0 48 48" fill="none" xmlns="http://www.w3.org/2000/svg">
<path d="M33.1635 21.5802L44.4541 19.0024L43.6742 15.6187L32.3837 18.1965C31.8551 18.3179 31.3872 18.4695 30.9756 18.6471L29.3596 17.8673C28.6794 17.5423 28.2591 17.1827 28.0945 16.7971C27.9298 16.4072 27.8345 16.2426 28.1508 15.584L33.1765 5.15127L30.0528 3.64355L25.0227 14.0763C24.7844 14.5659 24.6111 15.0295 24.4941 15.4627L22.8824 16.2382C22.2066 16.5632 21.665 16.6672 21.2578 16.5545C20.8462 16.4419 20.6599 16.4159 20.3436 15.7573L15.3179 5.32457L12.1898 6.83229L17.2155 17.265C17.4538 17.7503 17.7008 18.1749 17.9694 18.5388L17.5708 20.2848C17.4018 21.017 17.1505 21.5066 16.8039 21.7535C16.4573 22.0005 16.323 22.1348 15.6081 21.9702L4.31758 19.3967L3.54639 22.7803L14.8326 25.3625C15.3655 25.4838 15.8551 25.5532 16.31 25.5705L17.4235 26.9699C17.887 27.5548 18.1123 28.0617 18.095 28.482C18.0733 28.9022 18.095 29.0928 17.5188 29.5478L8.4638 36.7701L10.6257 39.4822L19.6807 32.2599C20.1053 31.922 20.4649 31.5797 20.7595 31.2418H22.5488C23.3027 31.2418 23.8356 31.3804 24.1562 31.6577C24.4725 31.9393 24.6328 32.0389 24.6328 32.7755V44.3563H28.0988V32.7798C28.0988 32.2296 28.0555 31.7357 27.9732 31.2851L27.9862 31.2981L29.1039 29.8987C29.5719 29.3138 30.0138 28.9845 30.434 28.9065C30.8456 28.8286 31.0276 28.7722 31.6038 29.2271L40.6588 36.4495L42.8207 33.7416L33.7657 26.5193C33.3412 26.177 32.9296 25.9041 32.531 25.6918L32.1324 23.9458C31.9634 23.2093 31.9851 22.659 32.1844 22.2864C32.388 21.9138 32.453 21.7362 33.1679 21.5716L33.1635 21.5802ZM28.87 25.5662C28.1811 25.9388 27.5269 26.5107 26.916 27.2775L25.9759 28.456C25.9152 28.4256 25.8632 28.391 25.8026 28.365C25.079 28.0574 24.2299 27.9014 23.2464 27.9014H21.7517C21.7387 27.8364 21.7257 27.7757 21.7083 27.7108C21.5004 26.9526 21.0888 26.19 20.4779 25.4232L19.5421 24.2491C19.5811 24.2014 19.6287 24.1581 19.6634 24.1061C20.127 23.4692 20.4649 22.672 20.6815 21.7145L21.0151 20.2588C21.0801 20.2588 21.1451 20.2588 21.2144 20.2588C21.9986 20.2242 22.8305 19.9902 23.7186 19.5656L25.0704 18.9114C25.1094 18.9591 25.1397 19.0154 25.183 19.063C25.7029 19.6523 26.4005 20.1635 27.2886 20.5881L28.6447 21.2423C28.6317 21.3073 28.6057 21.3636 28.597 21.4286C28.4584 22.2041 28.5017 23.0663 28.7184 24.0281L29.052 25.4882C28.9956 25.5142 28.9393 25.5402 28.883 25.5705L28.87 25.5662Z" fill="#1F1F1F"/>
</svg>
