<svg width="128" height="41" viewBox="0 0 128 41" fill="none" xmlns="http://www.w3.org/2000/svg">
<g clip-path="url(#clip0_43_252)">
<path d="M55.9471 8.04199H52.6414L52.2038 12.1926H49.522V15.3423H52.2038V22.6426C52.2038 23.951 52.4204 24.9909 52.858 25.762C53.2956 26.5332 53.9022 27.0835 54.682 27.4171C55.4619 27.7507 56.3804 27.9153 57.4418 27.9153H60.1237V24.7352H58.1913C57.3812 24.7352 56.8049 24.5836 56.4583 24.2847C56.1161 23.9814 55.9428 23.4355 55.9428 22.647V15.3467H60.2146V12.1969H55.9428V8.04633L55.9471 8.04199Z" fill="#1F1F1F"/>
<path d="M68.8316 13.3569C68.2683 13.8464 67.8004 14.4313 67.4278 15.1202L67.0856 12.1871H63.7495V27.9098H67.4928V20.3929C67.4928 19.5004 67.6055 18.7552 67.8351 18.1616C68.0647 17.5681 68.381 17.1002 68.7882 16.7579C69.1955 16.4156 69.6764 16.1643 70.2396 16.0084C70.8029 15.8524 71.3921 15.7744 72.016 15.7744H73.3244V11.8145C72.4102 11.8145 71.5741 11.9488 70.8115 12.2217C70.0533 12.4904 69.3905 12.8716 68.8316 13.3612V13.3569Z" fill="#1F1F1F"/>
<path d="M86.8291 12.577C85.7893 12.0658 84.5328 11.8145 83.0555 11.8145C81.8294 11.8145 80.6986 12.0398 79.6718 12.486C78.645 12.9323 77.8174 13.5562 77.1936 14.3577C76.5697 15.1592 76.1971 16.121 76.0714 17.2431H79.7541C79.9014 16.4546 80.274 15.8654 80.8762 15.4798C81.4784 15.0942 82.2063 14.9036 83.0598 14.9036C83.8093 14.9036 84.4202 15.0379 84.9011 15.3108C85.3777 15.5794 85.733 15.991 85.9626 16.5413C86.1922 17.0915 86.3049 17.7847 86.3049 18.6165H82.3449C80.8892 18.6165 79.6631 18.8202 78.6623 19.2231C77.6658 19.6304 76.9119 20.1936 76.4007 20.9214C75.8895 21.6493 75.6382 22.5115 75.6382 23.5123C75.6382 24.3658 75.8461 25.1543 76.2621 25.8822C76.678 26.6101 77.3105 27.1906 78.164 27.6282C79.0175 28.0658 80.0877 28.2824 81.3788 28.2824C82.046 28.2824 82.6439 28.2087 83.1724 28.0658C83.701 27.9185 84.1776 27.7192 84.5935 27.4592C85.0094 27.1993 85.3777 26.8917 85.7026 26.5407C86.0232 26.1855 86.2919 25.8042 86.4998 25.3883L86.8724 27.9141H90.0525V18.1833C90.0525 16.8532 89.7752 15.7138 89.225 14.7693C88.6747 13.8248 87.8776 13.0969 86.8378 12.5857L86.8291 12.577ZM86.2052 21.1121C86.1446 21.6753 86.0189 22.2039 85.8326 22.7021C85.6463 23.2004 85.382 23.6553 85.0354 24.0582C84.6931 24.4655 84.2859 24.7774 83.818 24.994C83.3501 25.2106 82.8128 25.3233 82.2106 25.3233C81.6691 25.3233 81.2011 25.241 80.8069 25.072C80.4126 24.9074 80.1093 24.6647 79.9014 24.3528C79.6934 24.0409 79.5894 23.6683 79.5894 23.2307C79.5894 22.7931 79.6934 22.4162 79.9014 22.0912C80.1093 21.7706 80.4516 21.515 80.9325 21.3287C81.4091 21.1424 82.0156 21.0471 82.7435 21.0471H86.2052V21.1121Z" fill="#1F1F1F"/>
<path d="M99.3543 15.6188C99.9868 15.2245 100.689 15.0252 101.46 15.0252C102.352 15.0252 103.128 15.2548 103.782 15.7097C104.436 16.169 104.87 16.7929 105.078 17.5814H109.007C108.635 15.7921 107.781 14.384 106.451 13.3529C105.121 12.3217 103.479 11.8105 101.521 11.8105C99.9608 11.8105 98.5744 12.1657 97.357 12.8719C96.1395 13.5781 95.1951 14.553 94.5192 15.7877C93.8433 17.0268 93.5054 18.4652 93.5054 20.1073C93.5054 21.7493 93.8433 23.0967 94.5192 24.3358C95.1951 25.5749 96.1395 26.5411 97.357 27.2386C98.5744 27.9361 99.9522 28.2827 101.49 28.2827C103.466 28.2827 105.121 27.7585 106.451 26.7057C107.781 25.6572 108.635 24.2578 109.007 22.5118H105.078C104.93 23.0534 104.688 23.5213 104.345 23.9155C104.003 24.3098 103.587 24.6087 103.098 24.8037C102.608 25.003 102.062 25.0983 101.46 25.0983C100.858 25.0983 100.338 24.9857 99.8395 24.7561C99.3413 24.5264 98.8994 24.2015 98.5138 23.7726C98.1282 23.348 97.8336 22.8194 97.6256 22.1955C97.4176 21.5717 97.3137 20.8525 97.3137 20.0423C97.3137 18.9808 97.4956 18.0753 97.8596 17.3301C98.2235 16.5806 98.7217 16.0087 99.3586 15.6144L99.3543 15.6188Z" fill="#1F1F1F"/>
<path d="M126.697 15.6054C126.073 14.453 125.19 13.5302 124.046 12.8456C122.902 12.1611 121.559 11.8145 120.021 11.8145C118.483 11.8145 117.053 12.1698 115.857 12.876C114.662 13.5822 113.734 14.5613 113.08 15.8091C112.426 17.0568 112.097 18.5126 112.097 20.1763C112.097 21.8399 112.43 23.1917 113.093 24.4178C113.756 25.6439 114.683 26.5971 115.87 27.2729C117.057 27.9488 118.426 28.2867 119.986 28.2867C121.212 28.2867 122.317 28.0614 123.292 27.6152C124.271 27.1689 125.09 26.5537 125.757 25.7739C126.424 24.994 126.901 24.1145 127.191 23.1397H123.387C123.119 23.7636 122.694 24.2618 122.122 24.6388C121.55 25.0113 120.827 25.202 119.956 25.202C119.163 25.202 118.452 25.02 117.82 24.6561C117.187 24.2921 116.685 23.7549 116.321 23.0487C116.013 22.4508 115.844 21.749 115.797 20.9604H127.568C127.611 20.6918 127.629 20.4319 127.629 20.1806V19.496C127.629 18.062 127.317 16.7666 126.693 15.6141L126.697 15.6054ZM115.857 18.5516C115.944 17.9537 116.1 17.4251 116.338 16.9745C116.711 16.277 117.222 15.7527 117.868 15.3975C118.513 15.0422 119.219 14.8689 119.991 14.8689C121.074 14.8689 121.975 15.1982 122.703 15.8524C123.431 16.5066 123.816 17.4078 123.855 18.5516H115.857Z" fill="#1F1F1F"/>
<path d="M29.6171 17.9366L40.9077 15.3588L40.1278 11.9751L28.8373 14.5529C28.3087 14.6743 27.8408 14.8259 27.4292 15.0035L25.8132 14.2237C25.133 13.8987 24.7127 13.5391 24.5481 13.1535C24.3834 12.7636 24.2881 12.599 24.6044 11.9404L29.6301 1.50772L26.5064 0L21.4763 10.4327C21.238 10.9223 21.0647 11.3859 20.9477 11.8191L19.336 12.5946C18.6602 12.9196 18.1186 13.0236 17.7114 12.9109C17.2998 12.7983 17.1135 12.7723 16.7972 12.1137L11.7715 1.68102L8.64338 3.18874L13.6691 13.6214C13.9074 14.1067 14.1544 14.5313 14.423 14.8952L14.0244 16.6412C13.8554 17.3734 13.6041 17.863 13.2575 18.1099C12.9109 18.3569 12.7766 18.4912 12.0617 18.3266L0.771189 15.7531L0 19.1367L11.2862 21.7189C11.8191 21.8402 12.3087 21.9096 12.7636 21.9269L13.8771 23.3263C14.3406 23.9112 14.5659 24.4181 14.5486 24.8384C14.5269 25.2586 14.5486 25.4492 13.9724 25.9042L4.91741 33.1265L7.07934 35.8386L16.1343 28.6163C16.5589 28.2784 16.9185 27.9361 17.2131 27.5982H19.0024C19.7563 27.5982 20.2892 27.7368 20.6098 28.0141C20.9261 28.2957 21.0864 28.3953 21.0864 29.1319V40.7127H24.5524V29.1362C24.5524 28.586 24.5091 28.0921 24.4268 27.6415L24.4398 27.6545L25.5575 26.2551C26.0255 25.6702 26.4674 25.3409 26.8876 25.2629C27.2992 25.185 27.4812 25.1286 28.0574 25.5835L37.1124 32.8059L39.2743 30.098L30.2193 22.8757C29.7948 22.5334 29.3832 22.2605 28.9846 22.0482L28.586 20.3022C28.417 19.5657 28.4387 19.0154 28.638 18.6428C28.8416 18.2702 28.9066 18.0926 29.6215 17.928L29.6171 17.9366ZM25.3236 21.9226C24.6347 22.2952 23.9805 22.8671 23.3696 23.6339L22.4295 24.8124C22.3688 24.782 22.3168 24.7474 22.2562 24.7214C21.5326 24.4138 20.6835 24.2578 19.7 24.2578H18.2053C18.1923 24.1928 18.1793 24.1321 18.1619 24.0672C17.954 23.309 17.5424 22.5464 16.9315 21.7796L15.9957 20.6055C16.0347 20.5578 16.0823 20.5145 16.117 20.4625C16.5806 19.8256 16.9185 19.0284 17.1351 18.0709L17.4687 16.6152C17.5337 16.6152 17.5987 16.6152 17.668 16.6152C18.4522 16.5806 19.2841 16.3466 20.1722 15.922L21.524 15.2678C21.563 15.3155 21.5933 15.3718 21.6366 15.4194C22.1565 16.0087 22.8541 16.5199 23.7422 16.9445L25.0983 17.5987C25.0853 17.6637 25.0593 17.72 25.0506 17.785C24.912 18.5605 24.9553 19.4227 25.172 20.3845L25.5056 21.8446C25.4492 21.8706 25.3929 21.8966 25.3366 21.9269L25.3236 21.9226Z" fill="#1F1F1F"/>
<mask id="mask0_43_252" style="mask-type:luminance" maskUnits="userSpaceOnUse" x="0" y="0" width="128" height="41">
<path d="M55.9471 8.04199H52.6414L52.2038 12.1926H49.522V15.3423H52.2038V22.6426C52.2038 23.951 52.4204 24.9909 52.858 25.762C53.2956 26.5332 53.9022 27.0835 54.682 27.4171C55.4619 27.7507 56.3804 27.9153 57.4418 27.9153H60.1237V24.7352H58.1913C57.3812 24.7352 56.8049 24.5836 56.4583 24.2847C56.1161 23.9814 55.9428 23.4355 55.9428 22.647V15.3467H60.2146V12.1969H55.9428V8.04633L55.9471 8.04199Z" fill="white"/>
<path d="M68.8316 13.3569C68.2683 13.8464 67.8004 14.4313 67.4278 15.1202L67.0856 12.1871H63.7495V27.9098H67.4928V20.3929C67.4928 19.5004 67.6055 18.7552 67.8351 18.1616C68.0647 17.5681 68.381 17.1002 68.7882 16.7579C69.1955 16.4156 69.6764 16.1643 70.2396 16.0084C70.8029 15.8524 71.3921 15.7744 72.016 15.7744H73.3244V11.8145C72.4102 11.8145 71.5741 11.9488 70.8115 12.2217C70.0533 12.4904 69.3905 12.8716 68.8316 13.3612V13.3569Z" fill="white"/>
<path d="M86.8291 12.577C85.7893 12.0658 84.5328 11.8145 83.0555 11.8145C81.8294 11.8145 80.6986 12.0398 79.6718 12.486C78.645 12.9323 77.8174 13.5562 77.1936 14.3577C76.5697 15.1592 76.1971 16.121 76.0714 17.2431H79.7541C79.9014 16.4546 80.274 15.8654 80.8762 15.4798C81.4784 15.0942 82.2063 14.9036 83.0598 14.9036C83.8093 14.9036 84.4202 15.0379 84.9011 15.3108C85.3777 15.5794 85.733 15.991 85.9626 16.5413C86.1922 17.0915 86.3049 17.7847 86.3049 18.6165H82.3449C80.8892 18.6165 79.6631 18.8202 78.6623 19.2231C77.6658 19.6304 76.9119 20.1936 76.4007 20.9214C75.8895 21.6493 75.6382 22.5115 75.6382 23.5123C75.6382 24.3658 75.8461 25.1543 76.2621 25.8822C76.678 26.6101 77.3105 27.1906 78.164 27.6282C79.0175 28.0658 80.0877 28.2824 81.3788 28.2824C82.046 28.2824 82.6439 28.2087 83.1724 28.0658C83.701 27.9185 84.1776 27.7192 84.5935 27.4592C85.0094 27.1993 85.3777 26.8917 85.7026 26.5407C86.0232 26.1855 86.2919 25.8042 86.4998 25.3883L86.8724 27.9141H90.0525V18.1833C90.0525 16.8532 89.7752 15.7138 89.225 14.7693C88.6747 13.8248 87.8776 13.0969 86.8378 12.5857L86.8291 12.577ZM86.2052 21.1121C86.1446 21.6753 86.0189 22.2039 85.8326 22.7021C85.6463 23.2004 85.382 23.6553 85.0354 24.0582C84.6931 24.4655 84.2859 24.7774 83.818 24.994C83.3501 25.2106 82.8128 25.3233 82.2106 25.3233C81.6691 25.3233 81.2011 25.241 80.8069 25.072C80.4126 24.9074 80.1093 24.6647 79.9014 24.3528C79.6934 24.0409 79.5894 23.6683 79.5894 23.2307C79.5894 22.7931 79.6934 22.4162 79.9014 22.0912C80.1093 21.7706 80.4516 21.515 80.9325 21.3287C81.4091 21.1424 82.0156 21.0471 82.7435 21.0471H86.2052V21.1121Z" fill="white"/>
<path d="M99.3543 15.6188C99.9868 15.2245 100.689 15.0252 101.46 15.0252C102.352 15.0252 103.128 15.2548 103.782 15.7097C104.436 16.169 104.87 16.7929 105.078 17.5814H109.007C108.635 15.7921 107.781 14.384 106.451 13.3529C105.121 12.3217 103.479 11.8105 101.521 11.8105C99.9608 11.8105 98.5744 12.1657 97.357 12.8719C96.1395 13.5781 95.1951 14.553 94.5192 15.7877C93.8433 17.0268 93.5054 18.4652 93.5054 20.1073C93.5054 21.7493 93.8433 23.0967 94.5192 24.3358C95.1951 25.5749 96.1395 26.5411 97.357 27.2386C98.5744 27.9361 99.9522 28.2827 101.49 28.2827C103.466 28.2827 105.121 27.7585 106.451 26.7057C107.781 25.6572 108.635 24.2578 109.007 22.5118H105.078C104.93 23.0534 104.688 23.5213 104.345 23.9155C104.003 24.3098 103.587 24.6087 103.098 24.8037C102.608 25.003 102.062 25.0983 101.46 25.0983C100.858 25.0983 100.338 24.9857 99.8395 24.7561C99.3413 24.5264 98.8994 24.2015 98.5138 23.7726C98.1282 23.348 97.8336 22.8194 97.6256 22.1955C97.4176 21.5717 97.3137 20.8525 97.3137 20.0423C97.3137 18.9808 97.4956 18.0753 97.8596 17.3301C98.2235 16.5806 98.7217 16.0087 99.3586 15.6144L99.3543 15.6188Z" fill="white"/>
<path d="M126.697 15.6054C126.073 14.453 125.19 13.5302 124.046 12.8456C122.902 12.1611 121.559 11.8145 120.021 11.8145C118.483 11.8145 117.053 12.1698 115.857 12.876C114.662 13.5822 113.734 14.5613 113.08 15.8091C112.426 17.0568 112.097 18.5126 112.097 20.1763C112.097 21.8399 112.43 23.1917 113.093 24.4178C113.756 25.6439 114.683 26.5971 115.87 27.2729C117.057 27.9488 118.426 28.2867 119.986 28.2867C121.212 28.2867 122.317 28.0614 123.292 27.6152C124.271 27.1689 125.09 26.5537 125.757 25.7739C126.424 24.994 126.901 24.1145 127.191 23.1397H123.387C123.119 23.7636 122.694 24.2618 122.122 24.6388C121.55 25.0113 120.827 25.202 119.956 25.202C119.163 25.202 118.452 25.02 117.82 24.6561C117.187 24.2921 116.685 23.7549 116.321 23.0487C116.013 22.4508 115.844 21.749 115.797 20.9604H127.568C127.611 20.6918 127.629 20.4319 127.629 20.1806V19.496C127.629 18.062 127.317 16.7666 126.693 15.6141L126.697 15.6054ZM115.857 18.5516C115.944 17.9537 116.1 17.4251 116.338 16.9745C116.711 16.277 117.222 15.7527 117.868 15.3975C118.513 15.0422 119.219 14.8689 119.991 14.8689C121.074 14.8689 121.975 15.1982 122.703 15.8524C123.431 16.5066 123.816 17.4078 123.855 18.5516H115.857Z" fill="white"/>
<path d="M29.6171 17.9366L40.9077 15.3588L40.1278 11.9751L28.8373 14.5529C28.3087 14.6743 27.8408 14.8259 27.4292 15.0035L25.8132 14.2237C25.133 13.8987 24.7127 13.5391 24.5481 13.1535C24.3834 12.7636 24.2881 12.599 24.6044 11.9404L29.6301 1.50772L26.5064 0L21.4763 10.4327C21.238 10.9223 21.0647 11.3859 20.9477 11.8191L19.336 12.5946C18.6602 12.9196 18.1186 13.0236 17.7114 12.9109C17.2998 12.7983 17.1135 12.7723 16.7972 12.1137L11.7715 1.68102L8.64338 3.18874L13.6691 13.6214C13.9074 14.1067 14.1544 14.5313 14.423 14.8952L14.0244 16.6412C13.8554 17.3734 13.6041 17.863 13.2575 18.1099C12.9109 18.3569 12.7766 18.4912 12.0617 18.3266L0.771189 15.7531L0 19.1367L11.2862 21.7189C11.8191 21.8402 12.3087 21.9096 12.7636 21.9269L13.8771 23.3263C14.3406 23.9112 14.5659 24.4181 14.5486 24.8384C14.5269 25.2586 14.5486 25.4492 13.9724 25.9042L4.91741 33.1265L7.07934 35.8386L16.1343 28.6163C16.5589 28.2784 16.9185 27.9361 17.2131 27.5982H19.0024C19.7563 27.5982 20.2892 27.7368 20.6098 28.0141C20.9261 28.2957 21.0864 28.3953 21.0864 29.1319V40.7127H24.5524V29.1362C24.5524 28.586 24.5091 28.0921 24.4268 27.6415L24.4398 27.6545L25.5575 26.2551C26.0255 25.6702 26.4674 25.3409 26.8876 25.2629C27.2992 25.185 27.4812 25.1286 28.0574 25.5835L37.1124 32.8059L39.2743 30.098L30.2193 22.8757C29.7948 22.5334 29.3832 22.2605 28.9846 22.0482L28.586 20.3022C28.417 19.5657 28.4387 19.0154 28.638 18.6428C28.8416 18.2702 28.9066 18.0926 29.6215 17.928L29.6171 17.9366ZM25.3236 21.9226C24.6347 22.2952 23.9805 22.8671 23.3696 23.6339L22.4295 24.8124C22.3688 24.782 22.3168 24.7474 22.2562 24.7214C21.5326 24.4138 20.6835 24.2578 19.7 24.2578H18.2053C18.1923 24.1928 18.1793 24.1321 18.1619 24.0672C17.954 23.309 17.5424 22.5464 16.9315 21.7796L15.9957 20.6055C16.0347 20.5578 16.0823 20.5145 16.117 20.4625C16.5806 19.8256 16.9185 19.0284 17.1351 18.0709L17.4687 16.6152C17.5337 16.6152 17.5987 16.6152 17.668 16.6152C18.4522 16.5806 19.2841 16.3466 20.1722 15.922L21.524 15.2678C21.563 15.3155 21.5933 15.3718 21.6366 15.4194C22.1565 16.0087 22.8541 16.5199 23.7422 16.9445L25.0983 17.5987C25.0853 17.6637 25.0593 17.72 25.0506 17.785C24.912 18.5605 24.9553 19.4227 25.172 20.3845L25.5056 21.8446C25.4492 21.8706 25.3929 21.8966 25.3366 21.9269L25.3236 21.9226Z" fill="white"/>
</mask>
<g mask="url(#mask0_43_252)">
<path d="M55.9471 8.04199H52.6414L52.2038 12.1926H49.522V15.3423H52.2038V22.6426C52.2038 23.951 52.4204 24.9909 52.858 25.762C53.2956 26.5332 53.9022 27.0835 54.682 27.4171C55.4619 27.7507 56.3804 27.9153 57.4418 27.9153H60.1237V24.7352H58.1913C57.3812 24.7352 56.8049 24.5836 56.4583 24.2847C56.1161 23.9814 55.9428 23.4355 55.9428 22.647V15.3467H60.2146V12.1969H55.9428V8.04633L55.9471 8.04199Z" stroke="black" stroke-width="2"/>
</g>
<mask id="mask1_43_252" style="mask-type:luminance" maskUnits="userSpaceOnUse" x="0" y="0" width="128" height="41">
<path d="M55.9471 8.04199H52.6414L52.2038 12.1926H49.522V15.3423H52.2038V22.6426C52.2038 23.951 52.4204 24.9909 52.858 25.762C53.2956 26.5332 53.9022 27.0835 54.682 27.4171C55.4619 27.7507 56.3804 27.9153 57.4418 27.9153H60.1237V24.7352H58.1913C57.3812 24.7352 56.8049 24.5836 56.4583 24.2847C56.1161 23.9814 55.9428 23.4355 55.9428 22.647V15.3467H60.2146V12.1969H55.9428V8.04633L55.9471 8.04199Z" fill="white"/>
<path d="M68.8316 13.3569C68.2683 13.8464 67.8004 14.4313 67.4278 15.1202L67.0856 12.1871H63.7495V27.9098H67.4928V20.3929C67.4928 19.5004 67.6055 18.7552 67.8351 18.1616C68.0647 17.5681 68.381 17.1002 68.7882 16.7579C69.1955 16.4156 69.6764 16.1643 70.2396 16.0084C70.8029 15.8524 71.3921 15.7744 72.016 15.7744H73.3244V11.8145C72.4102 11.8145 71.5741 11.9488 70.8115 12.2217C70.0533 12.4904 69.3905 12.8716 68.8316 13.3612V13.3569Z" fill="white"/>
<path d="M86.8291 12.577C85.7893 12.0658 84.5328 11.8145 83.0555 11.8145C81.8294 11.8145 80.6986 12.0398 79.6718 12.486C78.645 12.9323 77.8174 13.5562 77.1936 14.3577C76.5697 15.1592 76.1971 16.121 76.0714 17.2431H79.7541C79.9014 16.4546 80.274 15.8654 80.8762 15.4798C81.4784 15.0942 82.2063 14.9036 83.0598 14.9036C83.8093 14.9036 84.4202 15.0379 84.9011 15.3108C85.3777 15.5794 85.733 15.991 85.9626 16.5413C86.1922 17.0915 86.3049 17.7847 86.3049 18.6165H82.3449C80.8892 18.6165 79.6631 18.8202 78.6623 19.2231C77.6658 19.6304 76.9119 20.1936 76.4007 20.9214C75.8895 21.6493 75.6382 22.5115 75.6382 23.5123C75.6382 24.3658 75.8461 25.1543 76.2621 25.8822C76.678 26.6101 77.3105 27.1906 78.164 27.6282C79.0175 28.0658 80.0877 28.2824 81.3788 28.2824C82.046 28.2824 82.6439 28.2087 83.1724 28.0658C83.701 27.9185 84.1776 27.7192 84.5935 27.4592C85.0094 27.1993 85.3777 26.8917 85.7026 26.5407C86.0232 26.1855 86.2919 25.8042 86.4998 25.3883L86.8724 27.9141H90.0525V18.1833C90.0525 16.8532 89.7752 15.7138 89.225 14.7693C88.6747 13.8248 87.8776 13.0969 86.8378 12.5857L86.8291 12.577ZM86.2052 21.1121C86.1446 21.6753 86.0189 22.2039 85.8326 22.7021C85.6463 23.2004 85.382 23.6553 85.0354 24.0582C84.6931 24.4655 84.2859 24.7774 83.818 24.994C83.3501 25.2106 82.8128 25.3233 82.2106 25.3233C81.6691 25.3233 81.2011 25.241 80.8069 25.072C80.4126 24.9074 80.1093 24.6647 79.9014 24.3528C79.6934 24.0409 79.5894 23.6683 79.5894 23.2307C79.5894 22.7931 79.6934 22.4162 79.9014 22.0912C80.1093 21.7706 80.4516 21.515 80.9325 21.3287C81.4091 21.1424 82.0156 21.0471 82.7435 21.0471H86.2052V21.1121Z" fill="white"/>
<path d="M99.3543 15.6188C99.9868 15.2245 100.689 15.0252 101.46 15.0252C102.352 15.0252 103.128 15.2548 103.782 15.7097C104.436 16.169 104.87 16.7929 105.078 17.5814H109.007C108.635 15.7921 107.781 14.384 106.451 13.3529C105.121 12.3217 103.479 11.8105 101.521 11.8105C99.9608 11.8105 98.5744 12.1657 97.357 12.8719C96.1395 13.5781 95.1951 14.553 94.5192 15.7877C93.8433 17.0268 93.5054 18.4652 93.5054 20.1073C93.5054 21.7493 93.8433 23.0967 94.5192 24.3358C95.1951 25.5749 96.1395 26.5411 97.357 27.2386C98.5744 27.9361 99.9522 28.2827 101.49 28.2827C103.466 28.2827 105.121 27.7585 106.451 26.7057C107.781 25.6572 108.635 24.2578 109.007 22.5118H105.078C104.93 23.0534 104.688 23.5213 104.345 23.9155C104.003 24.3098 103.587 24.6087 103.098 24.8037C102.608 25.003 102.062 25.0983 101.46 25.0983C100.858 25.0983 100.338 24.9857 99.8395 24.7561C99.3413 24.5264 98.8994 24.2015 98.5138 23.7726C98.1282 23.348 97.8336 22.8194 97.6256 22.1955C97.4176 21.5717 97.3137 20.8525 97.3137 20.0423C97.3137 18.9808 97.4956 18.0753 97.8596 17.3301C98.2235 16.5806 98.7217 16.0087 99.3586 15.6144L99.3543 15.6188Z" fill="white"/>
<path d="M126.697 15.6054C126.073 14.453 125.19 13.5302 124.046 12.8456C122.902 12.1611 121.559 11.8145 120.021 11.8145C118.483 11.8145 117.053 12.1698 115.857 12.876C114.662 13.5822 113.734 14.5613 113.08 15.8091C112.426 17.0568 112.097 18.5126 112.097 20.1763C112.097 21.8399 112.43 23.1917 113.093 24.4178C113.756 25.6439 114.683 26.5971 115.87 27.2729C117.057 27.9488 118.426 28.2867 119.986 28.2867C121.212 28.2867 122.317 28.0614 123.292 27.6152C124.271 27.1689 125.09 26.5537 125.757 25.7739C126.424 24.994 126.901 24.1145 127.191 23.1397H123.387C123.119 23.7636 122.694 24.2618 122.122 24.6388C121.55 25.0113 120.827 25.202 119.956 25.202C119.163 25.202 118.452 25.02 117.82 24.6561C117.187 24.2921 116.685 23.7549 116.321 23.0487C116.013 22.4508 115.844 21.749 115.797 20.9604H127.568C127.611 20.6918 127.629 20.4319 127.629 20.1806V19.496C127.629 18.062 127.317 16.7666 126.693 15.6141L126.697 15.6054ZM115.857 18.5516C115.944 17.9537 116.1 17.4251 116.338 16.9745C116.711 16.277 117.222 15.7527 117.868 15.3975C118.513 15.0422 119.219 14.8689 119.991 14.8689C121.074 14.8689 121.975 15.1982 122.703 15.8524C123.431 16.5066 123.816 17.4078 123.855 18.5516H115.857Z" fill="white"/>
<path d="M29.6171 17.9366L40.9077 15.3588L40.1278 11.9751L28.8373 14.5529C28.3087 14.6743 27.8408 14.8259 27.4292 15.0035L25.8132 14.2237C25.133 13.8987 24.7127 13.5391 24.5481 13.1535C24.3834 12.7636 24.2881 12.599 24.6044 11.9404L29.6301 1.50772L26.5064 0L21.4763 10.4327C21.238 10.9223 21.0647 11.3859 20.9477 11.8191L19.336 12.5946C18.6602 12.9196 18.1186 13.0236 17.7114 12.9109C17.2998 12.7983 17.1135 12.7723 16.7972 12.1137L11.7715 1.68102L8.64338 3.18874L13.6691 13.6214C13.9074 14.1067 14.1544 14.5313 14.423 14.8952L14.0244 16.6412C13.8554 17.3734 13.6041 17.863 13.2575 18.1099C12.9109 18.3569 12.7766 18.4912 12.0617 18.3266L0.771189 15.7531L0 19.1367L11.2862 21.7189C11.8191 21.8402 12.3087 21.9096 12.7636 21.9269L13.8771 23.3263C14.3406 23.9112 14.5659 24.4181 14.5486 24.8384C14.5269 25.2586 14.5486 25.4492 13.9724 25.9042L4.91741 33.1265L7.07934 35.8386L16.1343 28.6163C16.5589 28.2784 16.9185 27.9361 17.2131 27.5982H19.0024C19.7563 27.5982 20.2892 27.7368 20.6098 28.0141C20.9261 28.2957 21.0864 28.3953 21.0864 29.1319V40.7127H24.5524V29.1362C24.5524 28.586 24.5091 28.0921 24.4268 27.6415L24.4398 27.6545L25.5575 26.2551C26.0255 25.6702 26.4674 25.3409 26.8876 25.2629C27.2992 25.185 27.4812 25.1286 28.0574 25.5835L37.1124 32.8059L39.2743 30.098L30.2193 22.8757C29.7948 22.5334 29.3832 22.2605 28.9846 22.0482L28.586 20.3022C28.417 19.5657 28.4387 19.0154 28.638 18.6428C28.8416 18.2702 28.9066 18.0926 29.6215 17.928L29.6171 17.9366ZM25.3236 21.9226C24.6347 22.2952 23.9805 22.8671 23.3696 23.6339L22.4295 24.8124C22.3688 24.782 22.3168 24.7474 22.2562 24.7214C21.5326 24.4138 20.6835 24.2578 19.7 24.2578H18.2053C18.1923 24.1928 18.1793 24.1321 18.1619 24.0672C17.954 23.309 17.5424 22.5464 16.9315 21.7796L15.9957 20.6055C16.0347 20.5578 16.0823 20.5145 16.117 20.4625C16.5806 19.8256 16.9185 19.0284 17.1351 18.0709L17.4687 16.6152C17.5337 16.6152 17.5987 16.6152 17.668 16.6152C18.4522 16.5806 19.2841 16.3466 20.1722 15.922L21.524 15.2678C21.563 15.3155 21.5933 15.3718 21.6366 15.4194C22.1565 16.0087 22.8541 16.5199 23.7422 16.9445L25.0983 17.5987C25.0853 17.6637 25.0593 17.72 25.0506 17.785C24.912 18.5605 24.9553 19.4227 25.172 20.3845L25.5056 21.8446C25.4492 21.8706 25.3929 21.8966 25.3366 21.9269L25.3236 21.9226Z" fill="white"/>
</mask>
<g mask="url(#mask1_43_252)">
<path d="M68.8316 13.3569C68.2683 13.8464 67.8004 14.4313 67.4278 15.1202L67.0856 12.1871H63.7495V27.9098H67.4928V20.3929C67.4928 19.5004 67.6055 18.7552 67.8351 18.1616C68.0647 17.5681 68.381 17.1002 68.7882 16.7579C69.1955 16.4156 69.6764 16.1643 70.2396 16.0084C70.8029 15.8524 71.3921 15.7744 72.016 15.7744H73.3244V11.8145C72.4102 11.8145 71.5741 11.9488 70.8115 12.2217C70.0533 12.4904 69.3905 12.8716 68.8316 13.3612V13.3569Z" stroke="black" stroke-width="2"/>
</g>
<mask id="mask2_43_252" style="mask-type:luminance" maskUnits="userSpaceOnUse" x="0" y="0" width="128" height="41">
<path d="M55.9471 8.04199H52.6414L52.2038 12.1926H49.522V15.3423H52.2038V22.6426C52.2038 23.951 52.4204 24.9909 52.858 25.762C53.2956 26.5332 53.9022 27.0835 54.682 27.4171C55.4619 27.7507 56.3804 27.9153 57.4418 27.9153H60.1237V24.7352H58.1913C57.3812 24.7352 56.8049 24.5836 56.4583 24.2847C56.1161 23.9814 55.9428 23.4355 55.9428 22.647V15.3467H60.2146V12.1969H55.9428V8.04633L55.9471 8.04199Z" fill="white"/>
<path d="M68.8316 13.3569C68.2683 13.8464 67.8004 14.4313 67.4278 15.1202L67.0856 12.1871H63.7495V27.9098H67.4928V20.3929C67.4928 19.5004 67.6055 18.7552 67.8351 18.1616C68.0647 17.5681 68.381 17.1002 68.7882 16.7579C69.1955 16.4156 69.6764 16.1643 70.2396 16.0084C70.8029 15.8524 71.3921 15.7744 72.016 15.7744H73.3244V11.8145C72.4102 11.8145 71.5741 11.9488 70.8115 12.2217C70.0533 12.4904 69.3905 12.8716 68.8316 13.3612V13.3569Z" fill="white"/>
<path d="M86.8291 12.577C85.7893 12.0658 84.5328 11.8145 83.0555 11.8145C81.8294 11.8145 80.6986 12.0398 79.6718 12.486C78.645 12.9323 77.8174 13.5562 77.1936 14.3577C76.5697 15.1592 76.1971 16.121 76.0714 17.2431H79.7541C79.9014 16.4546 80.274 15.8654 80.8762 15.4798C81.4784 15.0942 82.2063 14.9036 83.0598 14.9036C83.8093 14.9036 84.4202 15.0379 84.9011 15.3108C85.3777 15.5794 85.733 15.991 85.9626 16.5413C86.1922 17.0915 86.3049 17.7847 86.3049 18.6165H82.3449C80.8892 18.6165 79.6631 18.8202 78.6623 19.2231C77.6658 19.6304 76.9119 20.1936 76.4007 20.9214C75.8895 21.6493 75.6382 22.5115 75.6382 23.5123C75.6382 24.3658 75.8461 25.1543 76.2621 25.8822C76.678 26.6101 77.3105 27.1906 78.164 27.6282C79.0175 28.0658 80.0877 28.2824 81.3788 28.2824C82.046 28.2824 82.6439 28.2087 83.1724 28.0658C83.701 27.9185 84.1776 27.7192 84.5935 27.4592C85.0094 27.1993 85.3777 26.8917 85.7026 26.5407C86.0232 26.1855 86.2919 25.8042 86.4998 25.3883L86.8724 27.9141H90.0525V18.1833C90.0525 16.8532 89.7752 15.7138 89.225 14.7693C88.6747 13.8248 87.8776 13.0969 86.8378 12.5857L86.8291 12.577ZM86.2052 21.1121C86.1446 21.6753 86.0189 22.2039 85.8326 22.7021C85.6463 23.2004 85.382 23.6553 85.0354 24.0582C84.6931 24.4655 84.2859 24.7774 83.818 24.994C83.3501 25.2106 82.8128 25.3233 82.2106 25.3233C81.6691 25.3233 81.2011 25.241 80.8069 25.072C80.4126 24.9074 80.1093 24.6647 79.9014 24.3528C79.6934 24.0409 79.5894 23.6683 79.5894 23.2307C79.5894 22.7931 79.6934 22.4162 79.9014 22.0912C80.1093 21.7706 80.4516 21.515 80.9325 21.3287C81.4091 21.1424 82.0156 21.0471 82.7435 21.0471H86.2052V21.1121Z" fill="white"/>
<path d="M99.3543 15.6188C99.9868 15.2245 100.689 15.0252 101.46 15.0252C102.352 15.0252 103.128 15.2548 103.782 15.7097C104.436 16.169 104.87 16.7929 105.078 17.5814H109.007C108.635 15.7921 107.781 14.384 106.451 13.3529C105.121 12.3217 103.479 11.8105 101.521 11.8105C99.9608 11.8105 98.5744 12.1657 97.357 12.8719C96.1395 13.5781 95.1951 14.553 94.5192 15.7877C93.8433 17.0268 93.5054 18.4652 93.5054 20.1073C93.5054 21.7493 93.8433 23.0967 94.5192 24.3358C95.1951 25.5749 96.1395 26.5411 97.357 27.2386C98.5744 27.9361 99.9522 28.2827 101.49 28.2827C103.466 28.2827 105.121 27.7585 106.451 26.7057C107.781 25.6572 108.635 24.2578 109.007 22.5118H105.078C104.93 23.0534 104.688 23.5213 104.345 23.9155C104.003 24.3098 103.587 24.6087 103.098 24.8037C102.608 25.003 102.062 25.0983 101.46 25.0983C100.858 25.0983 100.338 24.9857 99.8395 24.7561C99.3413 24.5264 98.8994 24.2015 98.5138 23.7726C98.1282 23.348 97.8336 22.8194 97.6256 22.1955C97.4176 21.5717 97.3137 20.8525 97.3137 20.0423C97.3137 18.9808 97.4956 18.0753 97.8596 17.3301C98.2235 16.5806 98.7217 16.0087 99.3586 15.6144L99.3543 15.6188Z" fill="white"/>
<path d="M126.697 15.6054C126.073 14.453 125.19 13.5302 124.046 12.8456C122.902 12.1611 121.559 11.8145 120.021 11.8145C118.483 11.8145 117.053 12.1698 115.857 12.876C114.662 13.5822 113.734 14.5613 113.08 15.8091C112.426 17.0568 112.097 18.5126 112.097 20.1763C112.097 21.8399 112.43 23.1917 113.093 24.4178C113.756 25.6439 114.683 26.5971 115.87 27.2729C117.057 27.9488 118.426 28.2867 119.986 28.2867C121.212 28.2867 122.317 28.0614 123.292 27.6152C124.271 27.1689 125.09 26.5537 125.757 25.7739C126.424 24.994 126.901 24.1145 127.191 23.1397H123.387C123.119 23.7636 122.694 24.2618 122.122 24.6388C121.55 25.0113 120.827 25.202 119.956 25.202C119.163 25.202 118.452 25.02 117.82 24.6561C117.187 24.2921 116.685 23.7549 116.321 23.0487C116.013 22.4508 115.844 21.749 115.797 20.9604H127.568C127.611 20.6918 127.629 20.4319 127.629 20.1806V19.496C127.629 18.062 127.317 16.7666 126.693 15.6141L126.697 15.6054ZM115.857 18.5516C115.944 17.9537 116.1 17.4251 116.338 16.9745C116.711 16.277 117.222 15.7527 117.868 15.3975C118.513 15.0422 119.219 14.8689 119.991 14.8689C121.074 14.8689 121.975 15.1982 122.703 15.8524C123.431 16.5066 123.816 17.4078 123.855 18.5516H115.857Z" fill="white"/>
<path d="M29.6171 17.9366L40.9077 15.3588L40.1278 11.9751L28.8373 14.5529C28.3087 14.6743 27.8408 14.8259 27.4292 15.0035L25.8132 14.2237C25.133 13.8987 24.7127 13.5391 24.5481 13.1535C24.3834 12.7636 24.2881 12.599 24.6044 11.9404L29.6301 1.50772L26.5064 0L21.4763 10.4327C21.238 10.9223 21.0647 11.3859 20.9477 11.8191L19.336 12.5946C18.6602 12.9196 18.1186 13.0236 17.7114 12.9109C17.2998 12.7983 17.1135 12.7723 16.7972 12.1137L11.7715 1.68102L8.64338 3.18874L13.6691 13.6214C13.9074 14.1067 14.1544 14.5313 14.423 14.8952L14.0244 16.6412C13.8554 17.3734 13.6041 17.863 13.2575 18.1099C12.9109 18.3569 12.7766 18.4912 12.0617 18.3266L0.771189 15.7531L0 19.1367L11.2862 21.7189C11.8191 21.8402 12.3087 21.9096 12.7636 21.9269L13.8771 23.3263C14.3406 23.9112 14.5659 24.4181 14.5486 24.8384C14.5269 25.2586 14.5486 25.4492 13.9724 25.9042L4.91741 33.1265L7.07934 35.8386L16.1343 28.6163C16.5589 28.2784 16.9185 27.9361 17.2131 27.5982H19.0024C19.7563 27.5982 20.2892 27.7368 20.6098 28.0141C20.9261 28.2957 21.0864 28.3953 21.0864 29.1319V40.7127H24.5524V29.1362C24.5524 28.586 24.5091 28.0921 24.4268 27.6415L24.4398 27.6545L25.5575 26.2551C26.0255 25.6702 26.4674 25.3409 26.8876 25.2629C27.2992 25.185 27.4812 25.1286 28.0574 25.5835L37.1124 32.8059L39.2743 30.098L30.2193 22.8757C29.7948 22.5334 29.3832 22.2605 28.9846 22.0482L28.586 20.3022C28.417 19.5657 28.4387 19.0154 28.638 18.6428C28.8416 18.2702 28.9066 18.0926 29.6215 17.928L29.6171 17.9366ZM25.3236 21.9226C24.6347 22.2952 23.9805 22.8671 23.3696 23.6339L22.4295 24.8124C22.3688 24.782 22.3168 24.7474 22.2562 24.7214C21.5326 24.4138 20.6835 24.2578 19.7 24.2578H18.2053C18.1923 24.1928 18.1793 24.1321 18.1619 24.0672C17.954 23.309 17.5424 22.5464 16.9315 21.7796L15.9957 20.6055C16.0347 20.5578 16.0823 20.5145 16.117 20.4625C16.5806 19.8256 16.9185 19.0284 17.1351 18.0709L17.4687 16.6152C17.5337 16.6152 17.5987 16.6152 17.668 16.6152C18.4522 16.5806 19.2841 16.3466 20.1722 15.922L21.524 15.2678C21.563 15.3155 21.5933 15.3718 21.6366 15.4194C22.1565 16.0087 22.8541 16.5199 23.7422 16.9445L25.0983 17.5987C25.0853 17.6637 25.0593 17.72 25.0506 17.785C24.912 18.5605 24.9553 19.4227 25.172 20.3845L25.5056 21.8446C25.4492 21.8706 25.3929 21.8966 25.3366 21.9269L25.3236 21.9226Z" fill="white"/>
</mask>
<g mask="url(#mask2_43_252)">
<path d="M86.8291 12.577C85.7893 12.0658 84.5328 11.8145 83.0555 11.8145C81.8294 11.8145 80.6986 12.0398 79.6718 12.486C78.645 12.9323 77.8174 13.5562 77.1936 14.3577C76.5697 15.1592 76.1971 16.121 76.0714 17.2431H79.7541C79.9014 16.4546 80.274 15.8654 80.8762 15.4798C81.4784 15.0942 82.2063 14.9036 83.0598 14.9036C83.8093 14.9036 84.4202 15.0379 84.9011 15.3108C85.3777 15.5794 85.733 15.991 85.9626 16.5413C86.1922 17.0915 86.3049 17.7847 86.3049 18.6165H82.3449C80.8892 18.6165 79.6631 18.8202 78.6623 19.2231C77.6658 19.6304 76.9119 20.1936 76.4007 20.9214C75.8895 21.6493 75.6382 22.5115 75.6382 23.5123C75.6382 24.3658 75.8461 25.1543 76.2621 25.8822C76.678 26.6101 77.3105 27.1906 78.164 27.6282C79.0175 28.0658 80.0877 28.2824 81.3788 28.2824C82.046 28.2824 82.6439 28.2087 83.1724 28.0658C83.701 27.9185 84.1776 27.7192 84.5935 27.4592C85.0094 27.1993 85.3777 26.8917 85.7026 26.5407C86.0232 26.1855 86.2919 25.8042 86.4998 25.3883L86.8724 27.9141H90.0525V18.1833C90.0525 16.8532 89.7752 15.7138 89.225 14.7693C88.6747 13.8248 87.8776 13.0969 86.8378 12.5857L86.8291 12.577ZM86.2052 21.1121C86.1446 21.6753 86.0189 22.2039 85.8326 22.7021C85.6463 23.2004 85.382 23.6553 85.0354 24.0582C84.6931 24.4655 84.2859 24.7774 83.818 24.994C83.3501 25.2106 82.8128 25.3233 82.2106 25.3233C81.6691 25.3233 81.2011 25.241 80.8069 25.072C80.4126 24.9074 80.1093 24.6647 79.9014 24.3528C79.6934 24.0409 79.5894 23.6683 79.5894 23.2307C79.5894 22.7931 79.6934 22.4162 79.9014 22.0912C80.1093 21.7706 80.4516 21.515 80.9325 21.3287C81.4091 21.1424 82.0156 21.0471 82.7435 21.0471H86.2052V21.1121Z" stroke="black" stroke-width="2"/>
</g>
<mask id="mask3_43_252" style="mask-type:luminance" maskUnits="userSpaceOnUse" x="0" y="0" width="128" height="41">
<path d="M55.9471 8.04199H52.6414L52.2038 12.1926H49.522V15.3423H52.2038V22.6426C52.2038 23.951 52.4204 24.9909 52.858 25.762C53.2956 26.5332 53.9022 27.0835 54.682 27.4171C55.4619 27.7507 56.3804 27.9153 57.4418 27.9153H60.1237V24.7352H58.1913C57.3812 24.7352 56.8049 24.5836 56.4583 24.2847C56.1161 23.9814 55.9428 23.4355 55.9428 22.647V15.3467H60.2146V12.1969H55.9428V8.04633L55.9471 8.04199Z" fill="white"/>
<path d="M68.8316 13.3569C68.2683 13.8464 67.8004 14.4313 67.4278 15.1202L67.0856 12.1871H63.7495V27.9098H67.4928V20.3929C67.4928 19.5004 67.6055 18.7552 67.8351 18.1616C68.0647 17.5681 68.381 17.1002 68.7882 16.7579C69.1955 16.4156 69.6764 16.1643 70.2396 16.0084C70.8029 15.8524 71.3921 15.7744 72.016 15.7744H73.3244V11.8145C72.4102 11.8145 71.5741 11.9488 70.8115 12.2217C70.0533 12.4904 69.3905 12.8716 68.8316 13.3612V13.3569Z" fill="white"/>
<path d="M86.8291 12.577C85.7893 12.0658 84.5328 11.8145 83.0555 11.8145C81.8294 11.8145 80.6986 12.0398 79.6718 12.486C78.645 12.9323 77.8174 13.5562 77.1936 14.3577C76.5697 15.1592 76.1971 16.121 76.0714 17.2431H79.7541C79.9014 16.4546 80.274 15.8654 80.8762 15.4798C81.4784 15.0942 82.2063 14.9036 83.0598 14.9036C83.8093 14.9036 84.4202 15.0379 84.9011 15.3108C85.3777 15.5794 85.733 15.991 85.9626 16.5413C86.1922 17.0915 86.3049 17.7847 86.3049 18.6165H82.3449C80.8892 18.6165 79.6631 18.8202 78.6623 19.2231C77.6658 19.6304 76.9119 20.1936 76.4007 20.9214C75.8895 21.6493 75.6382 22.5115 75.6382 23.5123C75.6382 24.3658 75.8461 25.1543 76.2621 25.8822C76.678 26.6101 77.3105 27.1906 78.164 27.6282C79.0175 28.0658 80.0877 28.2824 81.3788 28.2824C82.046 28.2824 82.6439 28.2087 83.1724 28.0658C83.701 27.9185 84.1776 27.7192 84.5935 27.4592C85.0094 27.1993 85.3777 26.8917 85.7026 26.5407C86.0232 26.1855 86.2919 25.8042 86.4998 25.3883L86.8724 27.9141H90.0525V18.1833C90.0525 16.8532 89.7752 15.7138 89.225 14.7693C88.6747 13.8248 87.8776 13.0969 86.8378 12.5857L86.8291 12.577ZM86.2052 21.1121C86.1446 21.6753 86.0189 22.2039 85.8326 22.7021C85.6463 23.2004 85.382 23.6553 85.0354 24.0582C84.6931 24.4655 84.2859 24.7774 83.818 24.994C83.3501 25.2106 82.8128 25.3233 82.2106 25.3233C81.6691 25.3233 81.2011 25.241 80.8069 25.072C80.4126 24.9074 80.1093 24.6647 79.9014 24.3528C79.6934 24.0409 79.5894 23.6683 79.5894 23.2307C79.5894 22.7931 79.6934 22.4162 79.9014 22.0912C80.1093 21.7706 80.4516 21.515 80.9325 21.3287C81.4091 21.1424 82.0156 21.0471 82.7435 21.0471H86.2052V21.1121Z" fill="white"/>
<path d="M99.3543 15.6188C99.9868 15.2245 100.689 15.0252 101.46 15.0252C102.352 15.0252 103.128 15.2548 103.782 15.7097C104.436 16.169 104.87 16.7929 105.078 17.5814H109.007C108.635 15.7921 107.781 14.384 106.451 13.3529C105.121 12.3217 103.479 11.8105 101.521 11.8105C99.9608 11.8105 98.5744 12.1657 97.357 12.8719C96.1395 13.5781 95.1951 14.553 94.5192 15.7877C93.8433 17.0268 93.5054 18.4652 93.5054 20.1073C93.5054 21.7493 93.8433 23.0967 94.5192 24.3358C95.1951 25.5749 96.1395 26.5411 97.357 27.2386C98.5744 27.9361 99.9522 28.2827 101.49 28.2827C103.466 28.2827 105.121 27.7585 106.451 26.7057C107.781 25.6572 108.635 24.2578 109.007 22.5118H105.078C104.93 23.0534 104.688 23.5213 104.345 23.9155C104.003 24.3098 103.587 24.6087 103.098 24.8037C102.608 25.003 102.062 25.0983 101.46 25.0983C100.858 25.0983 100.338 24.9857 99.8395 24.7561C99.3413 24.5264 98.8994 24.2015 98.5138 23.7726C98.1282 23.348 97.8336 22.8194 97.6256 22.1955C97.4176 21.5717 97.3137 20.8525 97.3137 20.0423C97.3137 18.9808 97.4956 18.0753 97.8596 17.3301C98.2235 16.5806 98.7217 16.0087 99.3586 15.6144L99.3543 15.6188Z" fill="white"/>
<path d="M126.697 15.6054C126.073 14.453 125.19 13.5302 124.046 12.8456C122.902 12.1611 121.559 11.8145 120.021 11.8145C118.483 11.8145 117.053 12.1698 115.857 12.876C114.662 13.5822 113.734 14.5613 113.08 15.8091C112.426 17.0568 112.097 18.5126 112.097 20.1763C112.097 21.8399 112.43 23.1917 113.093 24.4178C113.756 25.6439 114.683 26.5971 115.87 27.2729C117.057 27.9488 118.426 28.2867 119.986 28.2867C121.212 28.2867 122.317 28.0614 123.292 27.6152C124.271 27.1689 125.09 26.5537 125.757 25.7739C126.424 24.994 126.901 24.1145 127.191 23.1397H123.387C123.119 23.7636 122.694 24.2618 122.122 24.6388C121.55 25.0113 120.827 25.202 119.956 25.202C119.163 25.202 118.452 25.02 117.82 24.6561C117.187 24.2921 116.685 23.7549 116.321 23.0487C116.013 22.4508 115.844 21.749 115.797 20.9604H127.568C127.611 20.6918 127.629 20.4319 127.629 20.1806V19.496C127.629 18.062 127.317 16.7666 126.693 15.6141L126.697 15.6054ZM115.857 18.5516C115.944 17.9537 116.1 17.4251 116.338 16.9745C116.711 16.277 117.222 15.7527 117.868 15.3975C118.513 15.0422 119.219 14.8689 119.991 14.8689C121.074 14.8689 121.975 15.1982 122.703 15.8524C123.431 16.5066 123.816 17.4078 123.855 18.5516H115.857Z" fill="white"/>
<path d="M29.6171 17.9366L40.9077 15.3588L40.1278 11.9751L28.8373 14.5529C28.3087 14.6743 27.8408 14.8259 27.4292 15.0035L25.8132 14.2237C25.133 13.8987 24.7127 13.5391 24.5481 13.1535C24.3834 12.7636 24.2881 12.599 24.6044 11.9404L29.6301 1.50772L26.5064 0L21.4763 10.4327C21.238 10.9223 21.0647 11.3859 20.9477 11.8191L19.336 12.5946C18.6602 12.9196 18.1186 13.0236 17.7114 12.9109C17.2998 12.7983 17.1135 12.7723 16.7972 12.1137L11.7715 1.68102L8.64338 3.18874L13.6691 13.6214C13.9074 14.1067 14.1544 14.5313 14.423 14.8952L14.0244 16.6412C13.8554 17.3734 13.6041 17.863 13.2575 18.1099C12.9109 18.3569 12.7766 18.4912 12.0617 18.3266L0.771189 15.7531L0 19.1367L11.2862 21.7189C11.8191 21.8402 12.3087 21.9096 12.7636 21.9269L13.8771 23.3263C14.3406 23.9112 14.5659 24.4181 14.5486 24.8384C14.5269 25.2586 14.5486 25.4492 13.9724 25.9042L4.91741 33.1265L7.07934 35.8386L16.1343 28.6163C16.5589 28.2784 16.9185 27.9361 17.2131 27.5982H19.0024C19.7563 27.5982 20.2892 27.7368 20.6098 28.0141C20.9261 28.2957 21.0864 28.3953 21.0864 29.1319V40.7127H24.5524V29.1362C24.5524 28.586 24.5091 28.0921 24.4268 27.6415L24.4398 27.6545L25.5575 26.2551C26.0255 25.6702 26.4674 25.3409 26.8876 25.2629C27.2992 25.185 27.4812 25.1286 28.0574 25.5835L37.1124 32.8059L39.2743 30.098L30.2193 22.8757C29.7948 22.5334 29.3832 22.2605 28.9846 22.0482L28.586 20.3022C28.417 19.5657 28.4387 19.0154 28.638 18.6428C28.8416 18.2702 28.9066 18.0926 29.6215 17.928L29.6171 17.9366ZM25.3236 21.9226C24.6347 22.2952 23.9805 22.8671 23.3696 23.6339L22.4295 24.8124C22.3688 24.782 22.3168 24.7474 22.2562 24.7214C21.5326 24.4138 20.6835 24.2578 19.7 24.2578H18.2053C18.1923 24.1928 18.1793 24.1321 18.1619 24.0672C17.954 23.309 17.5424 22.5464 16.9315 21.7796L15.9957 20.6055C16.0347 20.5578 16.0823 20.5145 16.117 20.4625C16.5806 19.8256 16.9185 19.0284 17.1351 18.0709L17.4687 16.6152C17.5337 16.6152 17.5987 16.6152 17.668 16.6152C18.4522 16.5806 19.2841 16.3466 20.1722 15.922L21.524 15.2678C21.563 15.3155 21.5933 15.3718 21.6366 15.4194C22.1565 16.0087 22.8541 16.5199 23.7422 16.9445L25.0983 17.5987C25.0853 17.6637 25.0593 17.72 25.0506 17.785C24.912 18.5605 24.9553 19.4227 25.172 20.3845L25.5056 21.8446C25.4492 21.8706 25.3929 21.8966 25.3366 21.9269L25.3236 21.9226Z" fill="white"/>
</mask>
<g mask="url(#mask3_43_252)">
<path d="M99.3543 15.6188C99.9868 15.2245 100.689 15.0252 101.46 15.0252C102.352 15.0252 103.128 15.2548 103.782 15.7097C104.436 16.169 104.87 16.7929 105.078 17.5814H109.007C108.635 15.7921 107.781 14.384 106.451 13.3529C105.121 12.3217 103.479 11.8105 101.521 11.8105C99.9608 11.8105 98.5744 12.1657 97.357 12.8719C96.1395 13.5781 95.1951 14.553 94.5192 15.7877C93.8433 17.0268 93.5054 18.4652 93.5054 20.1073C93.5054 21.7493 93.8433 23.0967 94.5192 24.3358C95.1951 25.5749 96.1395 26.5411 97.357 27.2386C98.5744 27.9361 99.9522 28.2827 101.49 28.2827C103.466 28.2827 105.121 27.7585 106.451 26.7057C107.781 25.6572 108.635 24.2578 109.007 22.5118H105.078C104.93 23.0534 104.688 23.5213 104.345 23.9155C104.003 24.3098 103.587 24.6087 103.098 24.8037C102.608 25.003 102.062 25.0983 101.46 25.0983C100.858 25.0983 100.338 24.9857 99.8395 24.7561C99.3413 24.5264 98.8994 24.2015 98.5138 23.7726C98.1282 23.348 97.8336 22.8194 97.6256 22.1955C97.4176 21.5717 97.3137 20.8525 97.3137 20.0423C97.3137 18.9808 97.4956 18.0753 97.8596 17.3301C98.2235 16.5806 98.7217 16.0087 99.3586 15.6144L99.3543 15.6188Z" stroke="black" stroke-width="2"/>
</g>
<mask id="mask4_43_252" style="mask-type:luminance" maskUnits="userSpaceOnUse" x="0" y="0" width="128" height="41">
<path d="M55.9471 8.04199H52.6414L52.2038 12.1926H49.522V15.3423H52.2038V22.6426C52.2038 23.951 52.4204 24.9909 52.858 25.762C53.2956 26.5332 53.9022 27.0835 54.682 27.4171C55.4619 27.7507 56.3804 27.9153 57.4418 27.9153H60.1237V24.7352H58.1913C57.3812 24.7352 56.8049 24.5836 56.4583 24.2847C56.1161 23.9814 55.9428 23.4355 55.9428 22.647V15.3467H60.2146V12.1969H55.9428V8.04633L55.9471 8.04199Z" fill="white"/>
<path d="M68.8316 13.3569C68.2683 13.8464 67.8004 14.4313 67.4278 15.1202L67.0856 12.1871H63.7495V27.9098H67.4928V20.3929C67.4928 19.5004 67.6055 18.7552 67.8351 18.1616C68.0647 17.5681 68.381 17.1002 68.7882 16.7579C69.1955 16.4156 69.6764 16.1643 70.2396 16.0084C70.8029 15.8524 71.3921 15.7744 72.016 15.7744H73.3244V11.8145C72.4102 11.8145 71.5741 11.9488 70.8115 12.2217C70.0533 12.4904 69.3905 12.8716 68.8316 13.3612V13.3569Z" fill="white"/>
<path d="M86.8291 12.577C85.7893 12.0658 84.5328 11.8145 83.0555 11.8145C81.8294 11.8145 80.6986 12.0398 79.6718 12.486C78.645 12.9323 77.8174 13.5562 77.1936 14.3577C76.5697 15.1592 76.1971 16.121 76.0714 17.2431H79.7541C79.9014 16.4546 80.274 15.8654 80.8762 15.4798C81.4784 15.0942 82.2063 14.9036 83.0598 14.9036C83.8093 14.9036 84.4202 15.0379 84.9011 15.3108C85.3777 15.5794 85.733 15.991 85.9626 16.5413C86.1922 17.0915 86.3049 17.7847 86.3049 18.6165H82.3449C80.8892 18.6165 79.6631 18.8202 78.6623 19.2231C77.6658 19.6304 76.9119 20.1936 76.4007 20.9214C75.8895 21.6493 75.6382 22.5115 75.6382 23.5123C75.6382 24.3658 75.8461 25.1543 76.2621 25.8822C76.678 26.6101 77.3105 27.1906 78.164 27.6282C79.0175 28.0658 80.0877 28.2824 81.3788 28.2824C82.046 28.2824 82.6439 28.2087 83.1724 28.0658C83.701 27.9185 84.1776 27.7192 84.5935 27.4592C85.0094 27.1993 85.3777 26.8917 85.7026 26.5407C86.0232 26.1855 86.2919 25.8042 86.4998 25.3883L86.8724 27.9141H90.0525V18.1833C90.0525 16.8532 89.7752 15.7138 89.225 14.7693C88.6747 13.8248 87.8776 13.0969 86.8378 12.5857L86.8291 12.577ZM86.2052 21.1121C86.1446 21.6753 86.0189 22.2039 85.8326 22.7021C85.6463 23.2004 85.382 23.6553 85.0354 24.0582C84.6931 24.4655 84.2859 24.7774 83.818 24.994C83.3501 25.2106 82.8128 25.3233 82.2106 25.3233C81.6691 25.3233 81.2011 25.241 80.8069 25.072C80.4126 24.9074 80.1093 24.6647 79.9014 24.3528C79.6934 24.0409 79.5894 23.6683 79.5894 23.2307C79.5894 22.7931 79.6934 22.4162 79.9014 22.0912C80.1093 21.7706 80.4516 21.515 80.9325 21.3287C81.4091 21.1424 82.0156 21.0471 82.7435 21.0471H86.2052V21.1121Z" fill="white"/>
<path d="M99.3543 15.6188C99.9868 15.2245 100.689 15.0252 101.46 15.0252C102.352 15.0252 103.128 15.2548 103.782 15.7097C104.436 16.169 104.87 16.7929 105.078 17.5814H109.007C108.635 15.7921 107.781 14.384 106.451 13.3529C105.121 12.3217 103.479 11.8105 101.521 11.8105C99.9608 11.8105 98.5744 12.1657 97.357 12.8719C96.1395 13.5781 95.1951 14.553 94.5192 15.7877C93.8433 17.0268 93.5054 18.4652 93.5054 20.1073C93.5054 21.7493 93.8433 23.0967 94.5192 24.3358C95.1951 25.5749 96.1395 26.5411 97.357 27.2386C98.5744 27.9361 99.9522 28.2827 101.49 28.2827C103.466 28.2827 105.121 27.7585 106.451 26.7057C107.781 25.6572 108.635 24.2578 109.007 22.5118H105.078C104.93 23.0534 104.688 23.5213 104.345 23.9155C104.003 24.3098 103.587 24.6087 103.098 24.8037C102.608 25.003 102.062 25.0983 101.46 25.0983C100.858 25.0983 100.338 24.9857 99.8395 24.7561C99.3413 24.5264 98.8994 24.2015 98.5138 23.7726C98.1282 23.348 97.8336 22.8194 97.6256 22.1955C97.4176 21.5717 97.3137 20.8525 97.3137 20.0423C97.3137 18.9808 97.4956 18.0753 97.8596 17.3301C98.2235 16.5806 98.7217 16.0087 99.3586 15.6144L99.3543 15.6188Z" fill="white"/>
<path d="M126.697 15.6054C126.073 14.453 125.19 13.5302 124.046 12.8456C122.902 12.1611 121.559 11.8145 120.021 11.8145C118.483 11.8145 117.053 12.1698 115.857 12.876C114.662 13.5822 113.734 14.5613 113.08 15.8091C112.426 17.0568 112.097 18.5126 112.097 20.1763C112.097 21.8399 112.43 23.1917 113.093 24.4178C113.756 25.6439 114.683 26.5971 115.87 27.2729C117.057 27.9488 118.426 28.2867 119.986 28.2867C121.212 28.2867 122.317 28.0614 123.292 27.6152C124.271 27.1689 125.09 26.5537 125.757 25.7739C126.424 24.994 126.901 24.1145 127.191 23.1397H123.387C123.119 23.7636 122.694 24.2618 122.122 24.6388C121.55 25.0113 120.827 25.202 119.956 25.202C119.163 25.202 118.452 25.02 117.82 24.6561C117.187 24.2921 116.685 23.7549 116.321 23.0487C116.013 22.4508 115.844 21.749 115.797 20.9604H127.568C127.611 20.6918 127.629 20.4319 127.629 20.1806V19.496C127.629 18.062 127.317 16.7666 126.693 15.6141L126.697 15.6054ZM115.857 18.5516C115.944 17.9537 116.1 17.4251 116.338 16.9745C116.711 16.277 117.222 15.7527 117.868 15.3975C118.513 15.0422 119.219 14.8689 119.991 14.8689C121.074 14.8689 121.975 15.1982 122.703 15.8524C123.431 16.5066 123.816 17.4078 123.855 18.5516H115.857Z" fill="white"/>
<path d="M29.6171 17.9366L40.9077 15.3588L40.1278 11.9751L28.8373 14.5529C28.3087 14.6743 27.8408 14.8259 27.4292 15.0035L25.8132 14.2237C25.133 13.8987 24.7127 13.5391 24.5481 13.1535C24.3834 12.7636 24.2881 12.599 24.6044 11.9404L29.6301 1.50772L26.5064 0L21.4763 10.4327C21.238 10.9223 21.0647 11.3859 20.9477 11.8191L19.336 12.5946C18.6602 12.9196 18.1186 13.0236 17.7114 12.9109C17.2998 12.7983 17.1135 12.7723 16.7972 12.1137L11.7715 1.68102L8.64338 3.18874L13.6691 13.6214C13.9074 14.1067 14.1544 14.5313 14.423 14.8952L14.0244 16.6412C13.8554 17.3734 13.6041 17.863 13.2575 18.1099C12.9109 18.3569 12.7766 18.4912 12.0617 18.3266L0.771189 15.7531L0 19.1367L11.2862 21.7189C11.8191 21.8402 12.3087 21.9096 12.7636 21.9269L13.8771 23.3263C14.3406 23.9112 14.5659 24.4181 14.5486 24.8384C14.5269 25.2586 14.5486 25.4492 13.9724 25.9042L4.91741 33.1265L7.07934 35.8386L16.1343 28.6163C16.5589 28.2784 16.9185 27.9361 17.2131 27.5982H19.0024C19.7563 27.5982 20.2892 27.7368 20.6098 28.0141C20.9261 28.2957 21.0864 28.3953 21.0864 29.1319V40.7127H24.5524V29.1362C24.5524 28.586 24.5091 28.0921 24.4268 27.6415L24.4398 27.6545L25.5575 26.2551C26.0255 25.6702 26.4674 25.3409 26.8876 25.2629C27.2992 25.185 27.4812 25.1286 28.0574 25.5835L37.1124 32.8059L39.2743 30.098L30.2193 22.8757C29.7948 22.5334 29.3832 22.2605 28.9846 22.0482L28.586 20.3022C28.417 19.5657 28.4387 19.0154 28.638 18.6428C28.8416 18.2702 28.9066 18.0926 29.6215 17.928L29.6171 17.9366ZM25.3236 21.9226C24.6347 22.2952 23.9805 22.8671 23.3696 23.6339L22.4295 24.8124C22.3688 24.782 22.3168 24.7474 22.2562 24.7214C21.5326 24.4138 20.6835 24.2578 19.7 24.2578H18.2053C18.1923 24.1928 18.1793 24.1321 18.1619 24.0672C17.954 23.309 17.5424 22.5464 16.9315 21.7796L15.9957 20.6055C16.0347 20.5578 16.0823 20.5145 16.117 20.4625C16.5806 19.8256 16.9185 19.0284 17.1351 18.0709L17.4687 16.6152C17.5337 16.6152 17.5987 16.6152 17.668 16.6152C18.4522 16.5806 19.2841 16.3466 20.1722 15.922L21.524 15.2678C21.563 15.3155 21.5933 15.3718 21.6366 15.4194C22.1565 16.0087 22.8541 16.5199 23.7422 16.9445L25.0983 17.5987C25.0853 17.6637 25.0593 17.72 25.0506 17.785C24.912 18.5605 24.9553 19.4227 25.172 20.3845L25.5056 21.8446C25.4492 21.8706 25.3929 21.8966 25.3366 21.9269L25.3236 21.9226Z" fill="white"/>
</mask>
<g mask="url(#mask4_43_252)">
<path d="M126.697 15.6054C126.073 14.453 125.19 13.5302 124.046 12.8456C122.902 12.1611 121.559 11.8145 120.021 11.8145C118.483 11.8145 117.053 12.1698 115.857 12.876C114.662 13.5822 113.734 14.5613 113.08 15.8091C112.426 17.0568 112.097 18.5126 112.097 20.1763C112.097 21.8399 112.43 23.1917 113.093 24.4178C113.756 25.6439 114.683 26.5971 115.87 27.2729C117.057 27.9488 118.426 28.2867 119.986 28.2867C121.212 28.2867 122.317 28.0614 123.292 27.6152C124.271 27.1689 125.09 26.5537 125.757 25.7739C126.424 24.994 126.901 24.1145 127.191 23.1397H123.387C123.119 23.7636 122.694 24.2618 122.122 24.6388C121.55 25.0113 120.827 25.202 119.956 25.202C119.163 25.202 118.452 25.02 117.82 24.6561C117.187 24.2921 116.685 23.7549 116.321 23.0487C116.013 22.4508 115.844 21.749 115.797 20.9604H127.568C127.611 20.6918 127.629 20.4319 127.629 20.1806V19.496C127.629 18.062 127.317 16.7666 126.693 15.6141L126.697 15.6054ZM115.857 18.5516C115.944 17.9537 116.1 17.4251 116.338 16.9745C116.711 16.277 117.222 15.7527 117.868 15.3975C118.513 15.0422 119.219 14.8689 119.991 14.8689C121.074 14.8689 121.975 15.1982 122.703 15.8524C123.431 16.5066 123.816 17.4078 123.855 18.5516H115.857Z" stroke="black" stroke-width="2"/>
</g>
<mask id="mask5_43_252" style="mask-type:luminance" maskUnits="userSpaceOnUse" x="0" y="0" width="128" height="41">
<path d="M55.9471 8.04199H52.6414L52.2038 12.1926H49.522V15.3423H52.2038V22.6426C52.2038 23.951 52.4204 24.9909 52.858 25.762C53.2956 26.5332 53.9022 27.0835 54.682 27.4171C55.4619 27.7507 56.3804 27.9153 57.4418 27.9153H60.1237V24.7352H58.1913C57.3812 24.7352 56.8049 24.5836 56.4583 24.2847C56.1161 23.9814 55.9428 23.4355 55.9428 22.647V15.3467H60.2146V12.1969H55.9428V8.04633L55.9471 8.04199Z" fill="white"/>
<path d="M68.8316 13.3569C68.2683 13.8464 67.8004 14.4313 67.4278 15.1202L67.0856 12.1871H63.7495V27.9098H67.4928V20.3929C67.4928 19.5004 67.6055 18.7552 67.8351 18.1616C68.0647 17.5681 68.381 17.1002 68.7882 16.7579C69.1955 16.4156 69.6764 16.1643 70.2396 16.0084C70.8029 15.8524 71.3921 15.7744 72.016 15.7744H73.3244V11.8145C72.4102 11.8145 71.5741 11.9488 70.8115 12.2217C70.0533 12.4904 69.3905 12.8716 68.8316 13.3612V13.3569Z" fill="white"/>
<path d="M86.8291 12.577C85.7893 12.0658 84.5328 11.8145 83.0555 11.8145C81.8294 11.8145 80.6986 12.0398 79.6718 12.486C78.645 12.9323 77.8174 13.5562 77.1936 14.3577C76.5697 15.1592 76.1971 16.121 76.0714 17.2431H79.7541C79.9014 16.4546 80.274 15.8654 80.8762 15.4798C81.4784 15.0942 82.2063 14.9036 83.0598 14.9036C83.8093 14.9036 84.4202 15.0379 84.9011 15.3108C85.3777 15.5794 85.733 15.991 85.9626 16.5413C86.1922 17.0915 86.3049 17.7847 86.3049 18.6165H82.3449C80.8892 18.6165 79.6631 18.8202 78.6623 19.2231C77.6658 19.6304 76.9119 20.1936 76.4007 20.9214C75.8895 21.6493 75.6382 22.5115 75.6382 23.5123C75.6382 24.3658 75.8461 25.1543 76.2621 25.8822C76.678 26.6101 77.3105 27.1906 78.164 27.6282C79.0175 28.0658 80.0877 28.2824 81.3788 28.2824C82.046 28.2824 82.6439 28.2087 83.1724 28.0658C83.701 27.9185 84.1776 27.7192 84.5935 27.4592C85.0094 27.1993 85.3777 26.8917 85.7026 26.5407C86.0232 26.1855 86.2919 25.8042 86.4998 25.3883L86.8724 27.9141H90.0525V18.1833C90.0525 16.8532 89.7752 15.7138 89.225 14.7693C88.6747 13.8248 87.8776 13.0969 86.8378 12.5857L86.8291 12.577ZM86.2052 21.1121C86.1446 21.6753 86.0189 22.2039 85.8326 22.7021C85.6463 23.2004 85.382 23.6553 85.0354 24.0582C84.6931 24.4655 84.2859 24.7774 83.818 24.994C83.3501 25.2106 82.8128 25.3233 82.2106 25.3233C81.6691 25.3233 81.2011 25.241 80.8069 25.072C80.4126 24.9074 80.1093 24.6647 79.9014 24.3528C79.6934 24.0409 79.5894 23.6683 79.5894 23.2307C79.5894 22.7931 79.6934 22.4162 79.9014 22.0912C80.1093 21.7706 80.4516 21.515 80.9325 21.3287C81.4091 21.1424 82.0156 21.0471 82.7435 21.0471H86.2052V21.1121Z" fill="white"/>
<path d="M99.3543 15.6188C99.9868 15.2245 100.689 15.0252 101.46 15.0252C102.352 15.0252 103.128 15.2548 103.782 15.7097C104.436 16.169 104.87 16.7929 105.078 17.5814H109.007C108.635 15.7921 107.781 14.384 106.451 13.3529C105.121 12.3217 103.479 11.8105 101.521 11.8105C99.9608 11.8105 98.5744 12.1657 97.357 12.8719C96.1395 13.5781 95.1951 14.553 94.5192 15.7877C93.8433 17.0268 93.5054 18.4652 93.5054 20.1073C93.5054 21.7493 93.8433 23.0967 94.5192 24.3358C95.1951 25.5749 96.1395 26.5411 97.357 27.2386C98.5744 27.9361 99.9522 28.2827 101.49 28.2827C103.466 28.2827 105.121 27.7585 106.451 26.7057C107.781 25.6572 108.635 24.2578 109.007 22.5118H105.078C104.93 23.0534 104.688 23.5213 104.345 23.9155C104.003 24.3098 103.587 24.6087 103.098 24.8037C102.608 25.003 102.062 25.0983 101.46 25.0983C100.858 25.0983 100.338 24.9857 99.8395 24.7561C99.3413 24.5264 98.8994 24.2015 98.5138 23.7726C98.1282 23.348 97.8336 22.8194 97.6256 22.1955C97.4176 21.5717 97.3137 20.8525 97.3137 20.0423C97.3137 18.9808 97.4956 18.0753 97.8596 17.3301C98.2235 16.5806 98.7217 16.0087 99.3586 15.6144L99.3543 15.6188Z" fill="white"/>
<path d="M126.697 15.6054C126.073 14.453 125.19 13.5302 124.046 12.8456C122.902 12.1611 121.559 11.8145 120.021 11.8145C118.483 11.8145 117.053 12.1698 115.857 12.876C114.662 13.5822 113.734 14.5613 113.08 15.8091C112.426 17.0568 112.097 18.5126 112.097 20.1763C112.097 21.8399 112.43 23.1917 113.093 24.4178C113.756 25.6439 114.683 26.5971 115.87 27.2729C117.057 27.9488 118.426 28.2867 119.986 28.2867C121.212 28.2867 122.317 28.0614 123.292 27.6152C124.271 27.1689 125.09 26.5537 125.757 25.7739C126.424 24.994 126.901 24.1145 127.191 23.1397H123.387C123.119 23.7636 122.694 24.2618 122.122 24.6388C121.55 25.0113 120.827 25.202 119.956 25.202C119.163 25.202 118.452 25.02 117.82 24.6561C117.187 24.2921 116.685 23.7549 116.321 23.0487C116.013 22.4508 115.844 21.749 115.797 20.9604H127.568C127.611 20.6918 127.629 20.4319 127.629 20.1806V19.496C127.629 18.062 127.317 16.7666 126.693 15.6141L126.697 15.6054ZM115.857 18.5516C115.944 17.9537 116.1 17.4251 116.338 16.9745C116.711 16.277 117.222 15.7527 117.868 15.3975C118.513 15.0422 119.219 14.8689 119.991 14.8689C121.074 14.8689 121.975 15.1982 122.703 15.8524C123.431 16.5066 123.816 17.4078 123.855 18.5516H115.857Z" fill="white"/>
<path d="M29.6171 17.9366L40.9077 15.3588L40.1278 11.9751L28.8373 14.5529C28.3087 14.6743 27.8408 14.8259 27.4292 15.0035L25.8132 14.2237C25.133 13.8987 24.7127 13.5391 24.5481 13.1535C24.3834 12.7636 24.2881 12.599 24.6044 11.9404L29.6301 1.50772L26.5064 0L21.4763 10.4327C21.238 10.9223 21.0647 11.3859 20.9477 11.8191L19.336 12.5946C18.6602 12.9196 18.1186 13.0236 17.7114 12.9109C17.2998 12.7983 17.1135 12.7723 16.7972 12.1137L11.7715 1.68102L8.64338 3.18874L13.6691 13.6214C13.9074 14.1067 14.1544 14.5313 14.423 14.8952L14.0244 16.6412C13.8554 17.3734 13.6041 17.863 13.2575 18.1099C12.9109 18.3569 12.7766 18.4912 12.0617 18.3266L0.771189 15.7531L0 19.1367L11.2862 21.7189C11.8191 21.8402 12.3087 21.9096 12.7636 21.9269L13.8771 23.3263C14.3406 23.9112 14.5659 24.4181 14.5486 24.8384C14.5269 25.2586 14.5486 25.4492 13.9724 25.9042L4.91741 33.1265L7.07934 35.8386L16.1343 28.6163C16.5589 28.2784 16.9185 27.9361 17.2131 27.5982H19.0024C19.7563 27.5982 20.2892 27.7368 20.6098 28.0141C20.9261 28.2957 21.0864 28.3953 21.0864 29.1319V40.7127H24.5524V29.1362C24.5524 28.586 24.5091 28.0921 24.4268 27.6415L24.4398 27.6545L25.5575 26.2551C26.0255 25.6702 26.4674 25.3409 26.8876 25.2629C27.2992 25.185 27.4812 25.1286 28.0574 25.5835L37.1124 32.8059L39.2743 30.098L30.2193 22.8757C29.7948 22.5334 29.3832 22.2605 28.9846 22.0482L28.586 20.3022C28.417 19.5657 28.4387 19.0154 28.638 18.6428C28.8416 18.2702 28.9066 18.0926 29.6215 17.928L29.6171 17.9366ZM25.3236 21.9226C24.6347 22.2952 23.9805 22.8671 23.3696 23.6339L22.4295 24.8124C22.3688 24.782 22.3168 24.7474 22.2562 24.7214C21.5326 24.4138 20.6835 24.2578 19.7 24.2578H18.2053C18.1923 24.1928 18.1793 24.1321 18.1619 24.0672C17.954 23.309 17.5424 22.5464 16.9315 21.7796L15.9957 20.6055C16.0347 20.5578 16.0823 20.5145 16.117 20.4625C16.5806 19.8256 16.9185 19.0284 17.1351 18.0709L17.4687 16.6152C17.5337 16.6152 17.5987 16.6152 17.668 16.6152C18.4522 16.5806 19.2841 16.3466 20.1722 15.922L21.524 15.2678C21.563 15.3155 21.5933 15.3718 21.6366 15.4194C22.1565 16.0087 22.8541 16.5199 23.7422 16.9445L25.0983 17.5987C25.0853 17.6637 25.0593 17.72 25.0506 17.785C24.912 18.5605 24.9553 19.4227 25.172 20.3845L25.5056 21.8446C25.4492 21.8706 25.3929 21.8966 25.3366 21.9269L25.3236 21.9226Z" fill="white"/>
</mask>
<g mask="url(#mask5_43_252)">
<path d="M29.6171 17.9366L40.9077 15.3588L40.1278 11.9751L28.8373 14.5529C28.3087 14.6743 27.8408 14.8259 27.4292 15.0035L25.8132 14.2237C25.133 13.8987 24.7127 13.5391 24.5481 13.1535C24.3834 12.7636 24.2881 12.599 24.6044 11.9404L29.6301 1.50772L26.5064 0L21.4763 10.4327C21.238 10.9223 21.0647 11.3859 20.9477 11.8191L19.336 12.5946C18.6602 12.9196 18.1186 13.0236 17.7114 12.9109C17.2998 12.7983 17.1135 12.7723 16.7972 12.1137L11.7715 1.68102L8.64338 3.18874L13.6691 13.6214C13.9074 14.1067 14.1544 14.5313 14.423 14.8952L14.0244 16.6412C13.8554 17.3734 13.6041 17.863 13.2575 18.1099C12.9109 18.3569 12.7766 18.4912 12.0617 18.3266L0.771189 15.7531L0 19.1367L11.2862 21.7189C11.8191 21.8402 12.3087 21.9096 12.7636 21.9269L13.8771 23.3263C14.3406 23.9112 14.5659 24.4181 14.5486 24.8384C14.5269 25.2586 14.5486 25.4492 13.9724 25.9042L4.91741 33.1265L7.07934 35.8386L16.1343 28.6163C16.5589 28.2784 16.9185 27.9361 17.2131 27.5982H19.0024C19.7563 27.5982 20.2892 27.7368 20.6098 28.0141C20.9261 28.2957 21.0864 28.3953 21.0864 29.1319V40.7127H24.5524V29.1362C24.5524 28.586 24.5091 28.0921 24.4268 27.6415L24.4398 27.6545L25.5575 26.2551C26.0255 25.6702 26.4674 25.3409 26.8876 25.2629C27.2992 25.185 27.4812 25.1286 28.0574 25.5835L37.1124 32.8059L39.2743 30.098L30.2193 22.8757C29.7948 22.5334 29.3832 22.2605 28.9846 22.0482L28.586 20.3022C28.417 19.5657 28.4387 19.0154 28.638 18.6428C28.8416 18.2702 28.9066 18.0926 29.6215 17.928L29.6171 17.9366ZM25.3236 21.9226C24.6347 22.2952 23.9805 22.8671 23.3696 23.6339L22.4295 24.8124C22.3688 24.782 22.3168 24.7474 22.2562 24.7214C21.5326 24.4138 20.6835 24.2578 19.7 24.2578H18.2053C18.1923 24.1928 18.1793 24.1321 18.1619 24.0672C17.954 23.309 17.5424 22.5464 16.9315 21.7796L15.9957 20.6055C16.0347 20.5578 16.0823 20.5145 16.117 20.4625C16.5806 19.8256 16.9185 19.0284 17.1351 18.0709L17.4687 16.6152C17.5337 16.6152 17.5987 16.6152 17.668 16.6152C18.4522 16.5806 19.2841 16.3466 20.1722 15.922L21.524 15.2678C21.563 15.3155 21.5933 15.3718 21.6366 15.4194C22.1565 16.0087 22.8541 16.5199 23.7422 16.9445L25.0983 17.5987C25.0853 17.6637 25.0593 17.72 25.0506 17.785C24.912 18.5605 24.9553 19.4227 25.172 20.3845L25.5056 21.8446C25.4492 21.8706 25.3929 21.8966 25.3366 21.9269L25.3236 21.9226Z" stroke="black" stroke-width="2"/>
</g>
</g>
<defs>
<clipPath id="clip0_43_252">
<rect width="128" height="41" fill="white"/>
</clipPath>
</defs>
</svg>
